# xmcd
#
# Track frame offsets: 
#        150
#        17552
#        33930
#        50242
#        65347
#        85610
#        109567
#        125627
#        149745
#        172307
#        192550
#        211960
#        231865
#        248182
#        265565
#        280992
#        295670
#        310347
#        325027
#
# Disc length: 4532 seconds
#
# Revision: 2
# Processed by: cddbd v1.5.1PL0 Copyright (c) Steve Scherf et al.
# Submitted via: ExactAudioCopy v0.90b4
#
DISCID=1e11b213
DTITLE=R. Kelly - TP.3 Reloaded
DYEAR=2005
DGENRE=R&B
TTITLE0=R. Kelly featuring The Game - Playa's Only
TTITLE1=R. Kelly featuring Snoop Dogg - Happy Summertime
TTITLE2=In The Kitchen
TTITLE3=Slow Wind
TTITLE4=Put My T-Shirt On
TTITLE5=Remote Control
TTITLE6=Kickin' It With Your Girlfriend
TTITLE7=R. Kelly featuring Elephant Man - Reggae Bump Bump
TTITLE8=R. Kelly featuring Nivea - Touchin'
TTITLE9=R. Kelly featuring Baby - Girls Go Crazy
TTITLE10=R. Kelly featuring Twista and Do Or Die - Hit It Til The Morn
TTITLE10=ing
TTITLE11=Sex Weed
TTITLE12=(Sex) Love Is What We Makin'
TTITLE13=R. Kelly featuring Wisin and Yandell - Burn It Up
TTITLE14=Trapped In The Closet Chapter 1
TTITLE15=Trapped In The Closet Chapter 2
TTITLE16=Trapped In The Closet Chapter 3
TTITLE17=Trapped In The Closet Chapter 4
TTITLE18=Trapped In The Closet Chapter 5
EXTD=
EXTT0=
EXTT1=
EXTT2=
EXTT3=
EXTT4=
EXTT5=
EXTT6=
EXTT7=
EXTT8=
EXTT9=
EXTT10=
EXTT11=
EXTT12=
EXTT13=
EXTT14=Nice CD (3) Stars out of 5
EXTT15=
EXTT16=
EXTT17=
EXTT18=
PLAYORDER=
